<?xml version="1.0" encoding="UTF-8"?>
<svg id="Calque_2" data-name="Calque 2" xmlns="http://www.w3.org/2000/svg" viewBox="0 0 1405.65 1204.4">
  <defs>
    <style>
      .cls-1 {
        font-family: ForteMT, Forte;
        font-size: 80.43px;
        opacity: .15;
      }

      .cls-1, .cls-2 {
        fill: #1e1e1e;
      }

      .cls-3 {
        letter-spacing: -.02em;
      }

      .cls-4 {
        opacity: .1;
      }

      .cls-5 {
        opacity: .3;
      }
    </style>
  </defs>
  <g class="cls-4">
    <path class="cls-2" d="M287.47,410.08l-29.12,1.71c-41.98,2.86-67.97,4.28-77.96,4.28-17.42,0-31.06-.92-40.91-2.78-9.85-1.85-16.42-5.14-19.7-9.84-3.28-4.71-4.92-11.62-4.92-20.76,0-7.13,2.07-17.26,6.21-30.39,4.13-13.12,12.2-34.81,24.18-65.06,9.7-23.68,16.97-42.37,21.83-56.07,15.12-39.38,27.1-67.77,35.95-85.17,2.85-5.42,5.35-9.91,7.49-13.48,2.14-3.56,4.63-7.77,7.49-12.63,9.42-14.83,20.83-26.54,34.24-35.1,30.53-20.54,59.49-30.82,86.89-30.82,21.68,0,32.53,5.28,32.53,15.84,0,13.98-27.25,59.64-81.75,136.96-26.54,37.67-49.65,72.62-69.34,104.86l100.17-5.14c7.12-23.68,16.61-43.16,28.47-58.42,11.86-15.26,26.78-26.6,44.79-34.03,18-7.42,38.85-11.13,62.57-11.13,12.28,0,20.92,1.36,25.92,4.08,5,2.72,7.5,7.22,7.5,13.52,0,5.72-2.14,15.58-6.42,29.54-4.28,13.97-9.98,30.5-17.11,49.6l-3.42,8.55c5.67-.57,9.44-.92,11.28-1.07,1.85-.14,4.19-.35,7.03-.64,2.55-.28,4.75-.49,6.59-.64,1.85-.14,3.91-.21,6.18-.21,6.53,0,9.79,1.71,9.79,5.14,0,1.14-.29,2-.86,2.57-5.12,11.42-12.23,23.75-21.33,37.02s-17.49,23.75-25.17,31.46c-5.98,7.14-13.8,12.13-23.47,14.98-6.27,20.56-17.97,59.97-35.08,118.22-.58,2.57-1.22,5.99-1.93,10.27-.72,4.28-1.22,7.27-1.5,8.98-4.29,23.66-9.86,38.63-16.71,44.9-22.58,13.4-42.43,23.31-59.58,29.72-17.15,6.42-33.86,9.62-50.14,9.62-11.72,0-22.14-2.85-31.28-8.56-9.15-5.7-13.72-12.41-13.72-20.12s3-20.9,9-40.45c6.01-19.54,14.73-43.51,26.16-71.91,11.44-28.39,21.15-50.86,29.16-67.41Z"/>
    <path class="cls-2" d="M876.71,66.39h4.28c15.41,0,30.17,7,44.3,20.97,14.12,13.98,25.32,32.68,33.6,56.07,8.27,23.4,12.41,47.94,12.41,73.62s-3.71,54.86-11.13,86.67c-7.42,31.82-17.33,62.42-29.75,91.81-12.41,29.39-27.39,57.93-44.94,85.6-17.55,27.68-35.74,50.65-54.57,68.91-44.51,45.09-90.03,67.63-136.54,67.63-31.1,0-58.5-7.77-82.18-23.33-23.69-15.55-41.94-37.66-54.79-66.34-12.84-28.68-19.26-61.56-19.26-98.66,0-63.91,13.34-125.19,40.02-183.83,26.68-58.64,61.99-106.07,105.93-142.31,43.94-36.23,89.17-54.36,135.68-54.36,22.54,0,41.52,5.85,56.93,17.55Zm-38.52,20.12l7.7-4.28-1.71-1.71c-18.26,.29-37.02,9.49-56.28,27.61-19.26,18.12-36.59,41.45-52,69.98-15.41,28.54-27.97,60.78-37.66,96.73-9.7,35.95-14.55,69.91-14.55,101.87,0,23.11,4.07,46.87,12.2,71.26,8.13,24.4,18.4,44.73,30.82,60.99,12.41,16.26,24.32,24.4,35.74,24.4,8.84,0,18.12-5.92,27.82-17.76,9.7-11.84,18.55-28.6,26.54-50.29,8.27-20.82,15.41-42.65,21.4-65.49,5.99-22.82,10.55-45.37,13.7-67.63,3.14-22.26,4.71-42.51,4.71-60.78,0-28.82-4.64-56.28-13.91-82.39-9.28-26.11-21.33-45.44-36.17-58-2.86-1.99-4.28-3.99-4.28-5.99,0-6.56,11.98-19.4,35.95-38.52Z"/>
    <path class="cls-2" d="M1127.1,228.61l8.56-20.97c-4.28,1.14-10.99,3.71-20.12,7.7-19.69,8.28-32.25,12.41-37.67,12.41-5.14,0-9.35-2.78-12.63-8.35-3.28-5.56-4.92-12.77-4.92-21.61,0-7.42,1.85-16.26,5.56-26.54,3.71-10.27,7.7-17.26,11.98-20.97,7.42-5.7,39.95-21.97,97.59-48.79l12.84-5.56c2.57-1.71,6.7-3.7,12.41-5.99,37.95-18.55,62.2-27.82,72.76-27.82,9.42,0,16.76,2.71,22.04,8.13,5.28,5.42,7.88,13.12,7.81,23.1,0,21.39-9.98,59.2-29.95,113.43-4.57,13.14-8.21,23.48-10.91,31.04-2.71,7.56-6.63,18.77-11.76,33.6-1.43,5.42-3,10.99-4.7,16.69-9.98,33.38-17.26,58.49-21.82,75.32-.58,2-2.5,8.77-5.78,20.33s-5.63,19.9-7.06,25.03c-1.43,5.14-3,10.42-4.71,15.84-19.11,73.04-35.08,119.84-47.92,140.39-4.28,6.57-9.28,12.42-14.97,17.56-12.27,9.42-22.9,16.7-31.88,21.83-8.99,5.14-17.54,8.77-25.67,10.91-8.13,2.14-17.33,3.21-27.6,3.21-14.83,0-28.03-4.35-39.58-13.05-11.56-8.7-17.33-18.62-17.33-29.75,0-1.99,.57-5.28,1.71-9.84,33.67-100.15,74.9-212.57,123.69-337.27Z"/>
  </g>
  <g>
    <g class="cls-5">
      <ellipse cx="685.08" cy="1136.93" rx="599.67" ry="26.19"/>
    </g>
    <path class="cls-2" d="M97.5,692.75c-8.23,0-16.43-3.34-22.39-9.92-11.21-12.36-10.27-31.47,2.1-42.67l222.81-201.92c12.36-11.2,31.47-10.26,42.67,2.1,11.21,12.36,10.27,31.47-2.1,42.67l-222.81,201.92c-5.78,5.24-13.04,7.83-20.28,7.83Z"/>
    <path class="cls-2" d="M282.15,801.84s58.09-39.53,61.42-48.76c3.69,33.62,11.08,73.89,11.08,73.89l-72.5-25.12Z"/>
    <path class="cls-2" d="M277.44,914.52l123.76,195.43s32.14,28.45,60.96,7.39c28.82-21.06,19.58-53.57,12.93-65.39s-64.28-102.7-64.28-102.7c0,0-22.17,7.76-61.32-5.91-39.16-13.67-72.04-28.82-72.04-28.82Z"/>
    <path class="cls-2" d="M391.97,848.02c-15.52-5.91-118.96-38.42-118.96-38.42,0,0-12.56-5.91,4.43-16.99,16.99-11.08,75.36-58.37,75.36-58.37,0,0,18.47-5.91,16.25-47.29-2.22-41.38-8.87-113.04,8.13-173.63,16.99-60.59,28.82-108.61-27.34-129.3,0,0-61.32-13.3-98.27,72.41-2.61,6.05-4.91,12.51-6.96,19.26l49.05-44.45c16.22-14.7,41.3-13.48,56.01,2.75,14.71,16.23,13.47,41.3-2.75,56.01l-116.7,105.76c-.26,59.73,6.58,110.4,6.58,110.4l-92.36,78.32s-43.59,57.63,13.3,79.06c56.89,21.43,217.22,76.1,217.22,76.1,0,0,45.81,11.82,58.37-30.29,12.56-42.11-25.86-55.41-41.38-61.32Z"/>
    <path class="cls-2" d="M538.43,361.18l-19.77-14.86c-.68,2.58-1.56,5.1-2.45,7.61l17.68,13.29c.68,.51,1.48,.76,2.26,.76,1.15,0,2.28-.52,3.02-1.51,1.25-1.67,.91-4.03-.75-5.29Z"/>
    <g>
      <path class="cls-2" d="M1034.54,908.78l7.45-28.82,.17-.17s32.14-104.55,32.88-107.13c.74-2.59-.37-2.59-5.54-3.69-5.17-1.11-62.06-19.21-93.47-28.82,2.59,18.84-9.97,69.82-9.97,69.82l.29,.47-23.97,92.74c-2.84,10.98-1.45,22.63,3.88,32.64l93.98,176.44c8.15,15.3,23.83,24.02,40.04,24.02,7.19,0,14.48-1.71,21.27-5.33,22.09-11.76,30.46-39.21,18.69-61.3l-85.69-160.87Z"/>
      <path class="cls-2" d="M1331.73,487.53l-129.92-129.91-115.41,77.83c-11.78,7.22-27.85,17.77-42.12,29.49-16.36,25.97-45.27,43.23-78.23,43.23-28.84,0-54.59-13.22-71.54-33.92h-75.23l-53.5-107.73c-.05-.24-.05-.45-.1-.69,0,0-14.11-24.47-36.77-14.41-16.6,7.36-23.03,29.57-17.62,40.74,.08,.16,.2,.28,.29,.43l-.25,.12,70.5,141.96h140.53c1.52,7.94,4.03,20.9,4.54,22.8,.74,2.77,13.3,52.27,13.3,52.27l149.99,47.29-4.28,13.61-177.99-58.99c-9.99-3.3-20.81-3.04-30.62,.76l-254.17,98.41c-23.34,9.04-34.93,35.28-25.9,58.62,6.96,17.96,24.1,28.96,42.27,28.96,5.44,0,10.97-.98,16.35-3.07l238.99-92.54,226.9,75.19c23.75,7.87,49.4-5,57.27-28.76,2.37-7.14,2.83-14.44,1.71-21.38,.51-9.32-.23-20.8-4.09-33.51-8.84-29.13-47.83-175.68-56.6-208.73l74.28-50.06,94.7,94.7s21.36,18.48,39.46,1.54c13.26-12.41,12.04-35.49,3.26-44.27Z"/>
      <path class="cls-2" d="M894.37,371.14c-8.08,12.95-12.78,28.22-12.78,44.61,0,46.65,37.82,84.47,84.47,84.47s84.47-37.82,84.47-84.47c0-9.41-1.55-18.45-4.39-26.9,4.5,0,9.76,0,15.24-.02,15.22-.03,18.47,1.48,21.06-18.47s-13.67-82.75-101.22-93.47c-87.55-10.71-112.68,63.17-113.78,71.67-.86,6.61,18.35,17.89,26.95,22.58Zm100.31,88.14c-26.35-28.63-78.68-20.74-79.2-20.66l-1.78-11.19c2.38-.38,58.83-8.97,89.32,24.17l-8.33,7.67Zm-42.29-156.9c4.43-4.43,8.31-6.28,14.59-6.1,6.28,.18,8.5,9.42,9.05,9.79,.55,.37,16.07,1.29,20.87,.74s0,2.59-7.02,5.36c-7.02,2.77-13.67,4.8-18.47,8.87-4.8,4.06-11.45,3.32-16.62-.92-5.17-4.25-15.15-22.17-15.15-22.17,0,0,8.31,8.87,12.75,4.43Zm-7.61,31.61s0,0,0,0c2.35-.13,4.8-.2,7.31-.25,1.29-.02,2.57-.05,3.91-.05,.99,0,2.01,.02,3.03,.03,2.64,.04,5.32,.1,8.14,.25,3.12,.16,6.15,.39,9.12,.67,1.72,.16,3.38,.36,5.04,.56,1.09,.13,2.2,.24,3.27,.39,2.23,.3,4.42,.63,6.55,.99,.35,.06,.71,.11,1.06,.17,2.42,.42,4.79,.86,7.08,1.34,34.18,7.13,53.98,20.96,56.72,26.73,3.51,7.39,3.88,16.44-2.96,15.33-3.72-.6-10.44-9.35-23.49-17.89-.17-.11-.33-.22-.5-.33-1.27-.82-2.61-1.62-4-2.43-.35-.2-.67-.41-1.03-.61-1.27-.72-2.63-1.41-4.01-2.1-.53-.27-1.02-.54-1.57-.8-1.29-.62-2.68-1.21-4.06-1.79-.7-.3-1.36-.61-2.08-.9-1.35-.54-2.8-1.02-4.23-1.52-.84-.29-1.64-.6-2.51-.88-1.46-.46-3.03-.86-4.58-1.28-.94-.25-1.82-.53-2.8-.76-1.7-.4-3.52-.73-5.32-1.07-.92-.17-1.78-.39-2.73-.54-2.8-.45-5.72-.82-8.76-1.09-3.07-.27-6.07-.51-9-.72-.82-.06-1.59-.1-2.4-.16-2.09-.14-4.18-.28-6.2-.4-.85-.05-1.66-.08-2.5-.12-1.93-.1-3.86-.2-5.72-.27-.72-.03-1.4-.05-2.1-.07-1.95-.07-3.88-.14-5.74-.18-.53-.01-1.03-.02-1.55-.03-1.99-.04-3.96-.07-5.85-.09-.38,0-.73,0-1.11,0-2.02,0-3.99,0-5.9,.02-.2,0-.4,0-.6,0-2.05,.03-4.03,.07-5.95,.12-.07,0-.14,0-.2,0-2.02,.06-3.97,.14-5.84,.23,0,0,0,0,0,0h0c-14.15,.69-24.06,2.19-29.29,3.69,0,0,15.74-12.16,53.34-14.2Z"/>
    </g>
    <g>
      <circle class="cls-2" cx="444.26" cy="302.41" r="21.81"/>
      <path class="cls-2" d="M437.54,240.72c-8.71,0-17.11,1.32-25.02,3.77,2.47,4.3,3.91,9.27,3.91,14.58,0,4.06-.83,7.93-2.33,11.46,4.09,1.13,9.41,3.53,12.36,8.6,4.94-3.79,11.1-6.06,17.8-6.06,16.19,0,29.36,13.17,29.36,29.36,0,3.14-.51,6.15-1.42,8.99l47.02,35.33c1.81-6.88,2.78-14.1,2.78-21.55,0-46.65-37.82-84.47-84.47-84.47Z"/>
      <path class="cls-2" d="M444.26,331.77c-16.19,0-29.36-13.17-29.36-29.36,0-6.56,2.19-12.61,5.85-17.51-1.46-5.23-7.57-7.01-10.73-7.58-5.38,6.75-13.66,11.09-22.95,11.09-8.1,0-15.44-3.3-20.76-8.62-8.37,13.11-13.24,28.67-13.24,45.38,0,46.65,37.82,84.47,84.47,84.47,36.39,0,67.4-23.01,79.28-55.27l-47.94-36.03c-5.24,8.06-14.31,13.42-24.62,13.42Zm-8.44,45.6c-3.06-1.72-18.61-14.04-28.1-21.8-9.48-7.76-25.98-6.65-25.98-6.65-15.89,.74-16.62-1.97-13.67-8.87,11.7-16.25,40.24-10.36,51.84-4.56,11.82,5.91,24.75,22.54,25.37,34.36,.61,11.82-6.4,9.24-9.46,7.51Z"/>
    </g>
    <path class="cls-2" d="M562.8,253.07c1.04-3.67,3.25-6.42,6.63-8.26,3.39-1.84,6.91-2.24,10.58-1.2,3.67,1.04,6.45,3.22,8.35,6.56,1.9,3.33,2.33,6.84,1.29,10.5-1.04,3.66-3.24,6.42-6.6,8.27-3.36,1.84-6.88,2.25-10.55,1.21-3.66-1.04-6.45-3.22-8.38-6.56-1.92-3.34-2.36-6.85-1.32-10.51Zm39.53-83.75c17.52,4.96,24.41,14.05,20.67,27.28-2.18,7.71-5.82,13.5-10.92,17.38-1.86,1.43-4.71,3.04-8.53,4.82-4.14,1.93-7.03,3.45-8.66,4.58-1.87,1.29-3.88,4.07-6.04,8.32-1.49,2.85-3.58,3.9-6.28,3.14-2.65-.75-4.6-2.51-5.84-5.27s-1.49-5.49-.72-8.19c.93-3.29,3.33-7.8,7.21-13.55,3.88-5.75,6.36-10.52,7.43-14.31,.72-2.53,.52-4.43-.58-5.69-.85-1.01-2.54-1.88-5.06-2.6-.67-.19-1.87,.01-3.58,.59-1.71,.59-3.3,.67-4.78,.25-2.15-.61-2.79-2.45-1.92-5.52,1.42-5.02,5.21-8.56,11.4-10.63,5.54-1.89,10.94-2.09,16.21-.6Z"/>
    <path class="cls-2" d="M513.61,241.33c1.04-3.67,3.25-6.42,6.64-8.26,3.38-1.84,6.91-2.24,10.58-1.21,3.66,1.04,6.46,3.23,8.38,6.57,1.93,3.34,2.36,6.84,1.32,10.51-1.04,3.66-3.25,6.42-6.63,8.26-3.39,1.84-6.91,2.24-10.58,1.2-3.67-1.04-6.46-3.23-8.38-6.57-1.92-3.34-2.36-6.84-1.33-10.51Zm18.68-17.03c3.37,.96,6.25,.36,8.63-1.79,.86-.8,2.74-3.34,5.64-7.62,11.21-16.66,17.4-27.02,18.54-31.06,3.98-14.07-.12-22.83-12.29-26.27-7.29-2.06-12.94-2-16.98,.18-4.03,2.18-7.07,6.91-9.13,14.2-2.24,7.92-2.61,20.26-1.12,37.01,.45,5,.8,8.01,1.06,9.04,.94,3.4,2.83,5.51,5.65,6.31Z"/>
    <path class="cls-2" d="M562.27,779.43h-49.5c-2.33,0-4.43-1.43-5.28-3.61-.85-2.18-.27-4.65,1.45-6.23l25.92-23.81-55.82-30.21c-2.21-1.19-3.36-3.7-2.85-6.15,.52-2.45,2.59-4.27,5.09-4.48l49.6-4.01-35.31-50.26c-1.4-2-1.37-4.67,.09-6.63,1.46-1.97,4.01-2.77,6.33-2l52,17.22-5.48-58.98c-.22-2.43,1.13-4.73,3.36-5.71,2.23-.99,4.85-.42,6.48,1.39l38.85,42.99,15.56-41.19c.85-2.24,2.87-3.6,5.41-3.66,2.4,.05,4.5,1.6,5.26,3.87l12.6,37.81,34.15-34.46c1.72-1.74,4.36-2.18,6.56-1.08,2.19,1.1,3.43,3.47,3.07,5.89l-8.13,55.04-11.21-1.65,5.61-37.97-28.49,28.75c-1.39,1.4-3.4,1.97-5.31,1.53-1.92-.45-3.46-1.86-4.08-3.72l-10.48-31.43-13.21,34.96c-.7,1.85-2.31,3.2-4.25,3.56-1.95,.38-3.93-.31-5.26-1.77l-33.65-37.24,4.71,50.65c.18,1.9-.62,3.77-2.11,4.96-1.5,1.19-3.49,1.54-5.31,.94l-43.95-14.56,31.16,44.35c1.17,1.66,1.36,3.82,.49,5.66s-2.65,3.08-4.67,3.24l-40.44,3.26,46,24.9c1.61,.87,2.7,2.47,2.93,4.29,.22,1.81-.44,3.63-1.79,4.87l-21.06,19.35h34.96v11.33Z"/>
    <path class="cls-2" d="M937.24,1113.76c-.88,0-1.78-.21-2.61-.64-191.49-99.81-236.7-295.16-237.13-297.12-.68-3.05,1.25-6.08,4.3-6.75,3.05-.69,6.08,1.25,6.76,4.3,.42,1.91,44.63,192.23,231.31,289.53,2.77,1.45,3.85,4.87,2.4,7.64-1.01,1.94-2.98,3.05-5.03,3.05Z"/>
  </g>
  <text class="cls-1" transform="translate(381.33 122.38)"><tspan x="0" y="0">Err</tspan><tspan class="cls-3" x="101.64" y="0">o</tspan><tspan x="144.01" y="0">r</tspan></text>
  <path class="cls-2" d="M387.07,229.81c-16.16,0-29.25,13.1-29.25,29.25,0,8.4,3.55,15.95,9.21,21.29,1.43-2.15,2.63-4.44,3.88-6.69-3.5-3.86-5.64-8.97-5.64-14.6,0-12.04,9.76-21.81,21.81-21.81,7.97,0,14.91,4.29,18.72,10.68,.12-.01,.23-.03,.35-.05,.57-.93,1.53-1.67,2.97-1.96,1.23-.25,2.44-.57,3.65-.88-4.96-9.08-14.6-15.24-25.69-15.24Z"/>
  <path class="cls-2" d="M371.28,274.07c1.38,1.45,2.95,2.71,4.68,3.74,0,0,0,0,.01,0,.61,.36,1.24,.7,1.89,1,.06,.03,.12,.06,.18,.09,.59,.27,1.2,.51,1.81,.73,.12,.04,.23,.09,.35,.13,.57,.19,1.15,.35,1.75,.49,.16,.04,.32,.09,.49,.13,.58,.12,1.16,.21,1.76,.29,.18,.02,.35,.06,.53,.08,.77,.08,1.55,.13,2.33,.13,12.04,0,21.81-9.76,21.81-21.81,0-.99-.09-1.97-.22-2.93-.03-.22-.06-.44-.1-.65-.32-1.96-.91-3.83-1.72-5.58-.03-.07-.07-.14-.1-.21-.4-.85-.87-1.66-1.37-2.44-13.59,5.82-25.33,15.13-34.08,26.81Z"/>
</svg>