<?xml version="1.0" standalone="no"?>
<!DOCTYPE svg PUBLIC "-//W3C//DTD SVG 20010904//EN"
 "http://www.w3.org/TR/2001/REC-SVG-20010904/DTD/svg10.dtd">
<svg version="1.0" xmlns="http://www.w3.org/2000/svg"
 width="300.000000pt" height="300.000000pt" viewBox="0 0 300.000000 300.000000"
 preserveAspectRatio="xMidYMid meet">
<metadata>
Created by potrace 1.10, written by Peter Selinger 2001-2011
</metadata>
<g transform="translate(0.000000,300.000000) scale(0.100000,-0.100000)"
fill="#000000" stroke="none">
<path d="M1266 2990 c-203 -23 -376 -69 -516 -137 -124 -60 -225 -157 -259
-248 -71 -187 -44 -384 89 -660 32 -66 85 -165 118 -219 l60 -99 -51 -59
c-109 -123 -198 -300 -234 -468 -21 -101 -24 -341 -4 -435 56 -273 178 -437
406 -551 160 -79 350 -114 625 -114 262 0 459 34 609 105 278 132 414 352 437
706 18 279 -79 566 -259 765 l-45 50 60 100 c80 131 170 319 202 422 37 118
52 251 39 333 -20 119 -49 177 -127 255 -114 114 -288 188 -556 235 -131 24
-462 34 -594 19z m449 -301 c296 -25 476 -92 526 -195 53 -111 -10 -324 -183
-611 l-49 -82 -37 19 c-68 35 -133 60 -215 82 -70 19 -107 22 -257 22 -150 0
-187 -3 -257 -22 -82 -22 -147 -47 -215 -82 l-37 -19 -49 82 c-159 265 -229
479 -193 590 24 72 101 126 236 165 183 54 467 74 730 51z m-768 -1205 c3 -9
-4 -27 -16 -42 -120 -149 -167 -235 -201 -366 -11 -44 -20 -105 -20 -136 0
-67 -19 -101 -47 -84 -43 27 -5 272 63 407 61 119 155 237 190 237 14 0 27 -7
31 -16z m-240 -766 c6 -7 20 -44 32 -83 28 -86 40 -109 90 -173 40 -50 44 -75
16 -86 -35 -13 -122 102 -161 213 -33 94 -31 135 7 140 4 1 11 -5 16 -11z"/>
</g>
</svg>
